<svg viewBox="0 0 512 512" xmlns="http://www.w3.org/2000/svg"><path fill="#55E6C1" d="m186.375 158.53125c17.457031 0 34.253906-9.046875 46.085938-24.820312 11.035156-14.71875 17.113281-34.054688 17.113281-54.445313 0-20.386719-6.078125-39.722656-17.113281-54.441406-11.832032-15.777344-28.628907-24.824219-46.085938-24.824219-17.453125 0-34.25 9.046875-46.082031 24.824219-11.035157 14.71875-17.117188 34.054687-17.117188 54.441406 0 20.390625 6.082031 39.726563 17.117188 54.445313 11.832031 15.773437 28.628906 24.820312 46.082031 24.820312zm0 0"/><path fill="#55E6C1" d="m325.621094 158.53125c17.457031 0 34.253906-9.046875 46.085937-24.820312 11.035157-14.71875 17.117188-34.054688 17.117188-54.445313 0-20.386719-6.082031-39.722656-17.117188-54.441406-11.832031-15.777344-28.628906-24.824219-46.085937-24.824219-17.453125 0-34.25 9.046875-46.082032 24.824219-11.035156 14.71875-17.117187 34.054687-17.117187 54.441406 0 20.390625 6.082031 39.726563 17.117187 54.445313 11.832032 15.773437 28.628907 24.820312 46.082032 24.820312zm0 0"/><path fill="#55E6C1" d="m497.234375 91.308594c-10.335937-13.78125-25.0625-21.6875-40.402344-21.6875-15.339843 0-30.0625 7.90625-40.398437 21.6875-9.523438 12.695312-14.765625 29.339844-14.765625 46.871094 0 17.527343 5.242187 34.171874 14.765625 46.867187 10.335937 13.78125 25.058594 21.6875 40.398437 21.6875 15.34375 0 30.066407-7.90625 40.402344-21.6875 9.523437-12.695313 14.765625-29.339844 14.765625-46.867187 0-17.53125-5.242188-34.175782-14.765625-46.871094zm0 0"/><path fill="#55E6C1" d="m95.570312 185.046875c9.519532-12.695313 14.761719-29.339844 14.761719-46.867187 0-17.53125-5.242187-34.175782-14.761719-46.871094-10.335937-13.78125-25.0625-21.6875-40.402343-21.6875-15.339844 0-30.066407 7.90625-40.402344 21.6875-9.523437 12.695312-14.765625 29.339844-14.765625 46.871094 0 17.527343 5.242188 34.171874 14.765625 46.867187 10.335937 13.78125 25.0625 21.6875 40.402344 21.6875 15.339843 0 30.066406-7.90625 40.402343-21.6875zm0 0"/><path fill="#55E6C1" d="m256 200.972656c-58.054688 0-112.632812 22.605469-153.683594 63.65625-41.046875 41.050782-63.65625 95.628906-63.65625 153.683594 0 18.253906 5.277344 35.96875 15.261719 51.226562 17.394531 26.589844 46.710937 42.460938 78.425781 42.460938 26.066406 0 46.414063-6.027344 66.089844-11.859375 18.4375-5.460937 35.851562-10.621094 57.5625-10.621094 21.714844 0 39.128906 5.160157 57.566406 10.621094 19.671875 5.832031 40.019532 11.859375 66.082032 11.859375 31.71875 0 61.042968-15.875 78.441406-42.46875 9.976562-15.25 15.25-32.960938 15.25-51.21875 0-58.054688-22.609375-112.632812-63.65625-153.683594-41.050782-41.050781-95.628906-63.65625-153.683594-63.65625zm0 0"/></svg>