<svg viewBox="0 0 511.99914 511" xmlns="http://www.w3.org/2000/svg"><path d="m336.316406 98.90625c-3.949218 0-7.808594 1.597656-10.601562 4.390625-2.796875 2.789063-4.398438 6.660156-4.398438 10.609375s1.601563 7.808594 4.398438 10.597656c2.792968 2.800782 6.652344 4.402344 10.601562 4.402344 3.949219 0 7.820313-1.601562 10.609375-4.402344 2.789063-2.789062 4.390625-6.648437 4.390625-10.597656s-1.601562-7.820312-4.390625-10.609375c-2.789062-2.792969-6.660156-4.390625-10.609375-4.390625zm0 0"/><path d="m482.082031 122.03125-50.9375-18.769531c-5.382812-57.558594-53.957031-102.761719-112.898437-102.761719-31.121094 0-60.15625 12.375-81.753906 34.847656-5.289063 5.507813-10.035157 11.5625-14.109376 17.996094-.027343.042969-.054687.085938-.082031.132812l-30.714843 49.660157v.003906l-189.34375 306.117187c-2.859376 4.628907-2.992188 10.441407-.34375 15.195313 2.648437 4.75 7.660156 7.695313 13.101562 7.695313h159.050781v65.332031c0 8.285156 6.714844 15 15 15 8.28125 0 14.996094-6.714844 14.996094-15v-65.332031h50.332031v65.332031c0 8.285156 6.714844 15 15 15s15-6.714844 15-15v-65.351563c81.351563-.867187 147.269532-67.308594 147.269532-148.863281v-78.574219l50.433593-18.585937c26.03125-9.59375 29.917969-24.191407 29.917969-32.039063s-3.886719-22.441406-29.917969-32.035156zm-235.492187 91.574219c0 58.167969-47.324219 105.492187-105.496094 105.492187-14.671875 0-29.070312-3.03125-42.339844-8.847656l109.90625-177.6875c23.976563 19.914062 37.929688 49.257812 37.929688 81.042969zm155.0625 69.660156c0 65.550781-53.332032 118.882813-118.886719 118.882813h-240.851563l40.941407-66.191407c18.105469 8.625 37.972656 13.140625 58.238281 13.140625 74.710938 0 135.496094-60.78125 135.496094-135.492187 0-42.269531-19.210938-81.171875-52.03125-106.75l23.210937-37.527344c2.992188-4.714844 6.472657-9.152344 10.355469-13.191406 15.886719-16.53125 37.238281-25.636719 60.121094-25.636719 45.988281 0 83.40625 37.414062 83.40625 83.40625zm70.054687-125.308594-40.054687 14.761719v-37.300781l40.054687 14.761719c3.808594 1.402343 6.433594 2.78125 8.152344 3.886718-1.71875 1.109375-4.347656 2.488282-8.152344 3.890625zm0 0"/></svg>