<svg viewBox="0 0 511.99964 511" xmlns="http://www.w3.org/2000/svg"><path d="m191.738281 297.726562c-3.949219 0-7.816406 1.601563-10.609375 4.390626-2.789062 2.800781-4.398437 6.660156-4.398437 10.609374 0 3.949219 1.609375 7.820313 4.398437 10.609376 2.792969 2.789062 6.660156 4.390624 10.609375 4.390624 3.941407 0 7.8125-1.601562 10.601563-4.390624 2.789062-2.800782 4.398437-6.660157 4.398437-10.609376 0-3.941406-1.609375-7.8125-4.398437-10.609374-2.789063-2.789063-6.660156-4.390626-10.601563-4.390626zm0 0"/><path d="m320.269531 297.726562c-3.949219 0-7.820312 1.601563-10.609375 4.390626-2.792968 2.800781-4.390625 6.660156-4.390625 10.609374 0 3.949219 1.597657 7.820313 4.390625 10.609376 2.789063 2.789062 6.660156 4.390624 10.609375 4.390624s7.808594-1.601562 10.609375-4.390624c2.789063-2.800782 4.390625-6.660157 4.390625-10.609376 0-3.941406-1.601562-7.8125-4.390625-10.609374-2.800781-2.789063-6.660156-4.390626-10.609375-4.390626zm0 0"/><path d="m265.046875 361.996094h-16.070313c-9.40625 0-17.175781 4.113281-21.320312 11.285156-4.140625 7.171875-3.820312 15.960938.882812 24.109375l8.039063 13.917969c4.703125 8.148437 12.152344 12.816406 20.433594 12.816406s15.730469-4.667969 20.4375-12.816406l8.035156-13.921875c4.703125-8.144531 5.023437-16.933594.882813-24.105469-4.144532-7.171875-11.914063-11.285156-21.320313-11.285156zm0 0"/><path d="m503.429688 419.679688-41.363282-19.652344h34.929688c8.28125 0 15-6.714844 15-15 0-8.28125-6.71875-15-15-15h-33.390625c-.011719-.234375-.019531-.476563-.03125-.710938l39.859375-18.933594c7.480468-3.558593 10.667968-12.503906 7.109375-19.988281-3.554688-7.480469-12.5-10.664062-19.984375-7.109375l-32.328125 15.359375c-8.367188-28.269531-25.820313-53.308593-49.9375-70.964843 14.480469-20.726563 27.660156-45.089844 38.539062-71.363282 17.136719-41.367187 26.804688-83.175781 27.226563-117.71875.480468-39.226562-11.320313-65.832031-33.230469-74.90625-5.109375-2.117187-10.609375-3.191406-16.347656-3.191406-20.726563 0-43.996094 13.972656-67.300781 40.402344-21.367188 24.238281-41.539063 57.886718-56.804688 94.746094-4.078125 9.835937-7.753906 19.769531-10.992188 29.671874-10.863281-2.761718-22.039062-4.15625-33.382812-4.15625s-22.519531 1.394532-33.382812 4.160157c-3.242188-9.910157-6.917969-19.84375-10.988282-29.675781-15.269531-36.855469-35.445312-70.503907-56.8125-94.742188-23.300781-26.433594-46.570312-40.40625-67.296875-40.40625-5.738281 0-11.238281 1.074219-16.347656 3.1875-21.910156 9.078125-33.710937 35.679688-33.234375 74.910156.421875 34.539063 10.089844 76.347656 27.226562 117.71875 10.882813 26.273438 24.058594 50.640625 38.542969 71.367188-24.117187 17.65625-41.566406 42.691406-49.933593 70.957031l-32.332032-15.359375c-7.484375-3.558594-16.429687-.371094-19.984375 7.109375-3.554687 7.484375-.371093 16.429687 7.113281 19.984375l39.859376 18.9375c-.011719.238281-.019532.476562-.03125.714844h-33.394532c-8.285156 0-14.99999975 6.71875-14.99999975 15 0 8.285156 6.71484375 15 14.99999975 15h34.925782l-41.363282 19.652344c-7.484375 3.554687-10.667968 12.5-7.113281 19.984374 2.570313 5.402344 7.949219 8.566407 13.558594 8.566407 2.160156 0 4.351562-.46875 6.429687-1.457031l37.191406-17.667969c20.460938 48.921875 68.8125 83.386719 125.070313 83.386719h144.597656c56.253907 0 104.609375-34.464844 125.066407-83.382813l37.191406 17.664063c2.078125.988281 4.265625 1.457031 6.425781 1.457031 5.609375 0 10.992187-3.164063 13.558594-8.566407 3.554687-7.484374.371093-16.429687-7.113281-19.984374zm-157.445313 61.324218c3.425781-7.179687 5.351563-15.207031 5.351563-23.679687 0-8.28125-6.71875-15-15-15-8.285157 0-15 6.71875-15 15 0 13.878906-11.292969 25.167969-25.167969 25.167969-13.878907 0-25.167969-11.289063-25.167969-25.167969 0-8.28125-6.714844-15-15-15-8.28125 0-15 6.71875-15 15 0 13.878906-11.289062 25.167969-25.164062 25.167969s-25.164063-11.289063-25.164063-25.167969c0-8.28125-6.71875-15-15-15-8.285156 0-15 6.71875-15 15 0 8.472656 1.921875 16.5 5.347656 23.679687-36.554687-6.195312-66.773437-31.257812-80.25-64.789062l37.132813-17.636719c5.230468-2.484375 8.5625-7.757813 8.5625-13.550781 0-5.789063-3.332032-11.0625-8.5625-13.546875l-41.605469-19.765625c6.957031-28.082032 25.308594-52.546875 51.289063-66.96875 3.847656-2.136719 6.5625-5.851563 7.425781-10.164063.867187-4.316406-.203125-8.789062-2.929688-12.242187-16.660156-21.113282-31.945312-47.910156-44.203125-77.503906-34.023437-82.152344-28.78125-145.742188-10.226562-153.429688 1.46875-.609375 3.0625-.90625 4.867187-.90625 23.125 0 66.554688 44.589844 96.390625 116.628906 5.660156 13.660156 10.488282 27.507813 14.355469 41.160156 1.148437 4.058594 3.953125 7.445313 7.726563 9.328126 3.773437 1.886718 8.164062 2.097656 12.101562.578124 12.101562-4.664062 24.855469-7.03125 37.90625-7.03125s25.800781 2.367188 37.902344 7.03125c3.9375 1.519532 8.328125 1.308594 12.101562-.578124 3.773438-1.882813 6.578125-5.269532 7.730469-9.328126 3.859375-13.640624 8.691406-27.488281 14.355469-41.160156 29.835937-72.039062 73.265625-116.628906 96.390625-116.628906 1.804687 0 3.398437.296875 4.867187.90625 18.554688 7.6875 23.796875 71.277344-10.230468 153.429688-12.257813 29.59375-27.539063 56.390624-44.199219 77.5-2.722657 3.453124-3.796875 7.929687-2.929688 12.242187.863281 4.3125 3.578125 8.027344 7.425781 10.164063 25.984376 14.425781 44.335938 38.890624 51.289063 66.976562l-41.359375 19.648438c-2.367188 1.070312-4.476562 2.765624-6.0625 5.015624-4.210938 5.964844-3.511719 14.09375 1.648438 19.253907 1.292968 1.292969 2.78125 2.3125 4.378906 3.042969l36.921875 17.539062c-13.472657 33.527344-43.691407 58.585938-80.246094 64.785156zm0 0"/></svg>