<svg viewBox="1 -80 511.99961 511" xmlns="http://www.w3.org/2000/svg"><path d="m191.730469 150.992188c3.949219 0 7.820312-1.597657 10.609375-4.386719 2.792968-2.792969 4.390625-6.660157 4.390625-10.613281 0-3.949219-1.597657-7.808594-4.390625-10.597657-2.789063-2.789062-6.660156-4.402343-10.609375-4.402343s-7.808594 1.613281-10.597657 4.402343c-2.800781 2.789063-4.402343 6.660157-4.402343 10.597657 0 3.953124 1.601562 7.820312 4.402343 10.613281 2.789063 2.789062 6.648438 4.386719 10.597657 4.386719zm0 0"/><path d="m320.269531 150.992188c3.949219 0 7.808594-1.597657 10.597657-4.386719 2.800781-2.792969 4.402343-6.660157 4.402343-10.613281 0-3.9375-1.601562-7.808594-4.402343-10.597657-2.789063-2.800781-6.648438-4.402343-10.597657-4.402343s-7.820312 1.601562-10.609375 4.402343c-2.789062 2.789063-4.390625 6.648438-4.390625 10.597657 0 3.953124 1.601563 7.820312 4.390625 10.613281 2.789063 2.789062 6.660156 4.386719 10.609375 4.386719zm0 0"/><path d="m336.332031 201.328125c-8.28125 0-15 6.71875-15 15 0 13.878906-11.289062 25.167969-25.164062 25.167969-10.875 0-20.15625-6.933594-23.667969-16.609375 1.863281-1.789063 3.53125-3.921875 4.949219-6.375l8.035156-13.917969c4.703125-8.148438 5.023437-16.933594.882813-24.109375-4.140626-7.171875-11.914063-11.285156-21.316407-11.285156h-16.074219c-9.40625 0-17.175781 4.113281-21.320312 11.289062-4.140625 7.171875-3.816406 15.960938.886719 24.105469l8.035156 13.921875c1.019531 1.765625 2.175781 3.355469 3.433594 4.785156-3.027344 10.496094-12.714844 18.199219-24.175781 18.199219-13.875 0-25.164063-11.292969-25.164063-25.167969 0-8.285156-6.71875-15-15-15-8.285156 0-15 6.714844-15 15 0 30.417969 24.746094 55.164063 55.164063 55.164063 15.816406 0 30.097656-6.6875 40.167968-17.386719 10.066406 10.699219 24.347656 17.386719 40.164063 17.386719 30.417969 0 55.167969-24.746094 55.167969-55.164063-.003907-8.289062-6.71875-15.003906-15.003907-15.003906zm0 0"/><path d="m502.6875 250.652344-47.113281-19.324219h41.421875c8.285156 0 15-6.714844 15-15 0-8.28125-6.714844-15-15-15h-41.414063l47.105469-19.316406c7.664062-3.144531 11.328125-11.90625 8.1875-19.570313-3.144531-7.664062-11.90625-11.328125-19.570312-8.1875l-59.671876 24.472656c.011719-.851562.03125-1.707031.03125-2.5625v-160.664062c0-5.53125-3.042968-10.613281-7.921874-13.226562-4.875-2.609376-10.792969-2.3242192-15.398438.746093l-47.878906 31.921875c-30.121094-22.285156-66.792969-34.441406-104.464844-34.441406s-74.339844 12.15625-104.457031 34.441406l-47.882813-31.921875c-4.605468-3.0703122-10.523437-3.355469-15.398437-.746093-4.878907 2.613281-7.921875 7.695312-7.921875 13.226562v160.664062c0 .855469.019531 1.707032.03125 2.5625l-59.671875-24.472656c-7.664063-3.140625-16.425781.519532-19.570313 8.1875-3.144531 7.664063.519532 16.425782 8.1875 19.570313l47.109375 19.320312h-41.421875c-8.28125 0-14.9960935 6.714844-14.9960935 15 0 8.28125 6.7148435 15 14.9960935 15h41.425782l-47.117188 19.320313c-7.664062 3.140625-11.332031 11.902344-8.1875 19.566406 2.382812 5.804688 7.980469 9.316406 13.886719 9.3125 1.894531 0 3.820312-.359375 5.683593-1.125l74.878907-30.710938c27.445312 61.308594 89.027343 104.132813 160.425781 104.132813s132.980469-42.824219 160.425781-104.132813l74.878907 30.710938c1.863281.765625 3.789062 1.125 5.6875 1.125 5.902343 0 11.503906-3.507812 13.882812-9.3125 3.140625-7.660156-.523438-16.425781-8.1875-19.566406zm-246.6875 71.175781c-58.882812 0-109.71875-35.125-132.65625-85.519531l14.878906-6.101563c5.632813-2.308593 9.308594-7.792969 9.308594-13.878906s-3.679688-11.566406-9.308594-13.875l-27.097656-11.113281c-.519531-4.988282-.789062-10.050782-.789062-15.175782v-132.636718l33.632812 22.421875c5.5625 3.707031 12.90625 3.285156 18.007812-1.03125 26.234376-22.195313 59.625-34.417969 94.023438-34.417969s67.792969 12.222656 94.023438 34.417969c5.101562 4.320312 12.449218 4.738281 18.011718 1.03125l33.628906-22.421875v132.636718c0 5.125-.269531 10.1875-.789062 15.175782l-26.886719 11.027344c-2.054687.804687-3.945312 2.070312-5.515625 3.757812-4.25 4.582031-5.214844 11.324219-2.421875 16.914062 1.71875 3.433594 4.585938 5.9375 7.921875 7.25l14.683594 6.019532c-22.9375 50.394531-73.769531 85.519531-132.65625 85.519531zm0 0"/></svg>