<svg id="Layer_1" height="512" viewBox="0 0 128 128" width="512" xmlns="http://www.w3.org/2000/svg" data-name="Layer 1"><path d="m88.808 89.75a16.643 16.643 0 0 0 -9.19 2.762l-7.788-15.567 33.557-69.686a1.751 1.751 0 0 0 -1.577-2.509 16.14 16.14 0 0 0 -9.787 3.388 34.12 34.12 0 0 0 -8.523 10.162c-.021.037-.041.074-.061.111l-21.439 42.875-21.444-42.879c-.02-.038-.039-.075-.061-.111a34.108 34.108 0 0 0 -8.52-10.159 16.133 16.133 0 0 0 -9.785-3.387 1.751 1.751 0 0 0 -1.577 2.509l33.556 69.684-7.787 15.569a16.743 16.743 0 1 0 6.762 19.088l8.856-18.4 8.859 18.4a16.748 16.748 0 1 0 15.949-21.85zm-.261-69.72a31.123 31.123 0 0 1 7.568-9.086 13.438 13.438 0 0 1 4.733-2.329l-45.338 94.16a16.727 16.727 0 0 0 -4.356-7.975zm-61.396-11.415a13.421 13.421 0 0 1 4.73 2.327 31.109 31.109 0 0 1 7.571 9.088l22.59 45.17-3.894 7.786zm12.041 111.135a13.266 13.266 0 1 1 12.682-9.427l-.117.24a1.731 1.731 0 0 0 -.154.532 13.26 13.26 0 0 1 -12.411 8.655zm30.718-38.818 6.936 13.868a16.727 16.727 0 0 0 -4.355 7.973l-6.548-13.6zm18.9 38.818a13.26 13.26 0 0 1 -12.41-8.65 1.731 1.731 0 0 0 -.149-.525l-.125-.259a13.247 13.247 0 1 1 12.685 9.438z"/><path d="m88.808 97.75a8.75 8.75 0 1 0 8.75 8.75 8.76 8.76 0 0 0 -8.75-8.75zm0 14a5.25 5.25 0 1 1 5.25-5.25 5.256 5.256 0 0 1 -5.25 5.25z"/><path d="m39.192 97.75a8.75 8.75 0 1 0 8.75 8.75 8.76 8.76 0 0 0 -8.75-8.75zm0 14a5.25 5.25 0 1 1 5.25-5.25 5.256 5.256 0 0 1 -5.25 5.25z"/></svg>