<?xml version="1.0" encoding="iso-8859-1"?>
<!-- Generator: Adobe Illustrator 21.0.0, SVG Export Plug-In . SVG Version: 6.00 Build 0)  -->
<svg version="1.1" id="Capa_1" xmlns="http://www.w3.org/2000/svg" xmlns:xlink="http://www.w3.org/1999/xlink" x="0px" y="0px"
	 viewBox="0 0 511.999 511.999" style="enable-background:new 0 0 511.999 511.999;" xml:space="preserve">
<g>
	<g>
		<path d="M360.7,251.482c-28.132-28.036-65.482-43.363-105.224-43.262c-81.5,0.282-147.806,67.471-147.806,149.776v20.963
			c0,29.648,15.198,56.418,40.656,71.611c25.456,15.193,56.234,15.863,82.327,1.789c15.87-8.56,34.821-8.56,50.692,0
			c12.5,6.743,26.07,10.101,39.621,10.1c14.734-0.001,29.445-3.974,42.707-11.889c25.457-15.193,40.656-41.964,40.656-71.611v-22.41
			C404.327,316.832,388.834,279.519,360.7,251.482z"/>
	</g>
</g>
<g>
	<g>
		<path d="M97.75,171.039l-8.028-5.833c-25.214-18.319-60.63-12.709-78.947,12.504h-0.001
			c-18.318,25.213-12.709,60.629,12.505,78.948l8.028,5.833c10.01,7.273,21.628,10.774,33.147,10.774
			c17.493,0,34.756-8.076,45.802-23.278C128.572,224.773,122.963,189.357,97.75,171.039z"/>
	</g>
</g>
<g>
	<g>
		<path d="M501.225,179.056c-18.318-25.213-53.736-30.824-78.948-12.504l-8.028,5.833c-25.213,18.318-30.823,53.734-12.504,78.948
			c11.047,15.204,28.307,23.278,45.801,23.278c11.517,0,23.138-3.502,33.147-10.774l8.028-5.833
			C513.934,239.685,519.543,204.269,501.225,179.056z"/>
	</g>
</g>
<g>
	<g>
		<path d="M236.618,113.739l-8.161-25.117c-4.664-14.358-14.642-26.04-28.095-32.894c-13.451-6.855-28.768-8.06-43.125-3.394
			c-14.358,4.665-26.041,14.642-32.896,28.094s-8.06,28.768-3.394,43.126l8.161,25.117c7.753,23.859,29.965,39.06,53.795,39.06
			c5.773,0,11.646-0.893,17.426-2.771h0.001c14.357-4.665,26.04-14.643,32.895-28.095
			C240.078,143.413,241.283,128.097,236.618,113.739z"/>
	</g>
</g>
<g>
	<g>
		<path d="M354.761,52.846c-29.641-9.631-61.589,6.649-71.219,36.289l-8.161,25.116c-4.665,14.358-3.46,29.674,3.393,43.126
			c6.854,13.452,18.537,23.43,32.894,28.095c5.783,1.878,11.651,2.771,17.427,2.771c23.828,0,46.042-15.201,53.795-39.06
			l8.161-25.117C400.681,94.426,384.401,62.477,354.761,52.846z"/>
	</g>
</g>
<g>
</g>
<g>
</g>
<g>
</g>
<g>
</g>
<g>
</g>
<g>
</g>
<g>
</g>
<g>
</g>
<g>
</g>
<g>
</g>
<g>
</g>
<g>
</g>
<g>
</g>
<g>
</g>
<g>
</g>
</svg>
